<?xml version="1.0" encoding="utf-8"?>
<!-- Generator: Adobe Illustrator 19.2.1, SVG Export Plug-In . SVG Version: 6.00 Build 0)  -->
<svg version="1.1" id="layer" xmlns="http://www.w3.org/2000/svg" xmlns:xlink="http://www.w3.org/1999/xlink" x="0px" y="0px"
	 viewBox="0 0 652 652" style="enable-background:new 0 0 652 652;" xml:space="preserve">
<style type="text/css">
	.st0{fill:#54565B;}
	.st1{fill:#009C4D;}
	.st2{fill:#4A4D4D;}
</style>
<g>
	<path class="st0" d="M142.1,322c0,23.5-19,42.5-42.5,42.5c-23.5,0-42.5-19-42.5-42.5c0-23.5,19-42.5,42.5-42.5
		C123.1,279.5,142.1,298.5,142.1,322 M178.8,384.6c0,0,2.8-3.2-0.4-6l-17.7-15.4c8-11.8,12.6-25.9,12.6-41.2
		c0-40.7-33-73.6-73.6-73.6C59,248.4,26,281.3,26,322c0,40.7,33,73.6,73.6,73.6c14.9,0,28.7-4.5,40.3-12l19.4,16.9
		c0,0,3.2,2.8,6-0.4L178.8,384.6z M228.4,390.5V253.4c0-5-5-5-5-5h-22.1c-5,0-5,5-5,5v137.1c0,5,5,5,5,5h22.1
		C228.4,395.6,228.4,390.5,228.4,390.5 M282.6,267.3v-14.2c0,0,0-4.8-4.8-4.8h-21.2c0,0-4.8,0-4.8,4.8v14.2c0,0,0,4.8,4.8,4.8h21.2
		C277.8,272.2,282.6,272.2,282.6,267.3 M283.5,390.5v-99c0-5-5-5-5-5h-21.6c-5,0-5,5-5,5v99c0,5,5,5,5,5h21.6
		C283.5,395.6,283.5,390.5,283.5,390.5 M376.3,329.8c-2.6-4.3,0.9-7.9,0.9-7.9l30.5-31.6c3.5-3.6-1.5-3.6-1.5-3.6h-28.5
		c-5,0-8.5,3.6-8.5,3.6l-28.3,30c-3.4,3.6-3.4-1.4-3.4-1.4v-65.6c0-5-5-5-5-5h-21.6c-4.8,0-4.8,4.8-4.8,4.8v137.3c0,5,5,5,5,5h21.4
		c4.8,0,4.8-4.8,4.8-4.8v-24.1c0-5,3.7-8.4,3.7-8.4l10.1-9.5l25.4,42.6c2.6,4.3,7.6,4.3,7.6,4.3H411c5,0,2.4-4.3,2.4-4.3
		L376.3,329.8z"/>
	<path class="st1" d="M578.7,321.3c0,28.7-23.2,51.9-51.9,51.9c-28.7,0-51.9-23.3-51.9-51.9c0-28.7,23.2-51.9,51.9-51.9
		C555.4,269.3,578.7,292.6,578.7,321.3 M621.9,386.2l-23.7-19.8c8.2-13,13-28.5,13-45.1c0-46.7-37.8-84.5-84.5-84.5
		c-46.7,0-84.5,37.8-84.5,84.5c0,46.7,37.8,84.5,84.5,84.5c18.1,0,34.9-5.7,48.6-15.4l25.2,21.2c0,0,3.8,3.1,6.9-0.6l15-17.9
		C622.5,393.1,625.6,389.3,621.9,386.2"/>
	<path class="st0" d="M493.4,321.3c0-18.4,14.9-33.3,33.3-33.3c18.4,0,33.3,14.9,33.3,33.3c0,18.4-14.9,33.3-33.3,33.3
		C508.4,354.5,493.4,339.6,493.4,321.3"/>
	<path class="st2" d="M614.7,261.2h2.5c1.5,0,2.5-0.3,2.5-2c0-1.5-1.1-2-2.5-2h-2.5V261.2z M614.7,267.3h-1.2V256h4.1
		c1.9,0,3.4,1,3.4,3.1c0,1.8-1,3-2.7,3.1l3.1,5h-1.5l-3-5h-2.3V267.3z M616.8,253.7c-4.4,0-7.7,3.5-7.7,8c0,4.5,3.3,8,7.7,8
		s7.7-3.5,7.7-8C624.5,257.3,621.2,253.7,616.8,253.7 M607.6,261.7c0-5.1,4.2-9.2,9.2-9.2c5.1,0,9.2,4.2,9.2,9.2
		c0,5-4.1,9.2-9.2,9.2C611.8,270.9,607.6,266.7,607.6,261.7"/>
</g>
</svg>
